<?xml version="1.0" encoding="UTF-8" standalone="no"?>
<!-- Created with Inkscape (http://www.inkscape.org/) -->

<svg
   version="1.1"
   id="svg1"
   width="1202.4448"
   height="949.99506"
   viewBox="0 0 1202.4448 949.99506"
   sodipodi:docname="circle.png"
   inkscape:export-filename="inkscape.png"
   inkscape:export-xdpi="96"
   inkscape:export-ydpi="96"
   xmlns:inkscape="http://www.inkscape.org/namespaces/inkscape"
   xmlns:sodipodi="http://sodipodi.sourceforge.net/DTD/sodipodi-0.dtd"
   xmlns="http://www.w3.org/2000/svg"
   xmlns:svg="http://www.w3.org/2000/svg">
  <defs
     id="defs1" />
  <sodipodi:namedview
     id="namedview1"
     pagecolor="#000000"
     bordercolor="#000000"
     borderopacity="0.25"
     inkscape:showpageshadow="2"
     inkscape:pageopacity="0.0"
     inkscape:pagecheckerboard="0"
     inkscape:deskcolor="#d1d1d1"
     showgrid="false"
     inkscape:export-bgcolor="#ffffff00" />
  <g
     inkscape:groupmode="layer"
     inkscape:label="Image"
     id="g1"
     transform="translate(-512.14038,-369.27448)">
    <path
       id="path9-8-3"
       style="fill:#ff0c0c;fill-opacity:0;fill-rule:evenodd;stroke:#bf5050;stroke-width:5;stroke-linecap:round;stroke-linejoin:round;stroke-dasharray:none;stroke-dashoffset:0;stroke-opacity:1;paint-order:stroke markers fill"
       d="m 1024.1289,371.77539 c -15.5278,0.54239 -30.60046,6.38761 -43.12758,15.44381 -14.88631,10.75082 -26.8928,25.09731 -36.29664,40.78283 -18.132,30.14273 -28.03662,65.23492 -27.99374,100.43156 -0.18185,3.25612 0.45209,6.51639 -0.22864,9.73834 -0.80412,2.60433 -2.64093,4.72649 -4.41297,6.73488 -2.77073,2.97055 -5.7314,5.76476 -8.78433,8.44295 -5.2594,4.50079 -11.21199,8.51332 -18.00766,10.20493 -4.16744,0.97682 -8.58052,0.98232 -12.72265,-0.12696 -0.3363,-0.0892 -1.10466,-0.31735 -1.59755,-0.49177 -1.73655,-0.588 -3.4457,-1.45864 -4.9029,-2.39775 -5.60392,-3.53838 -9.80576,-8.90147 -13.00151,-14.63196 -0.19391,-0.35658 -0.57645,-1.04279 -0.82533,-1.5355 -4.43867,-8.55767 -7.34638,-17.91675 -9.58482,-27.20083 -1.44286,-5.92904 -2.61849,-11.83685 -3.55388,-17.88377 -0.98491,-6.24857 -1.78958,-12.68361 -2.58342,-19.02808 -0.47384,-4.40094 -1.19641,-8.79334 -2.5801,-13.0087 -2.21237,-7.11379 -5.98529,-13.69696 -10.82993,-19.34333 -8.24122,-9.6666 -19.25449,-16.62814 -30.92445,-21.42944 -15.51763,-6.33246 -32.54431,-8.52404 -49.21226,-7.34626 -22.04323,1.45776 -43.55021,8.23558 -63.03674,18.51619 -21.91592,11.63902 -41.33434,28.26532 -55.37133,48.79623 -10.38483,15.35391 -17.27312,33.27812 -18.60785,51.83754 -1.2608,17.02783 1.54559,34.12561 6.38048,50.42394 5.90332,19.60257 15.29207,37.92405 25.32304,55.69238 9.97903,17.64679 20.67612,34.87395 30.8187,52.42565 8.20388,14.24448 16.1779,28.79934 22.48908,44.0441 5.36728,12.88483 9.54449,26.58427 11.56859,40.54004 0.62635,4.30658 1.05291,8.68834 1.25483,13.08187 0.0447,0.99967 0.0758,2.26889 0.0998,3.37212 0.29952,18.1874 -3.60673,36.37075 -10.87835,53.01766 -3.38626,7.90083 -7.75854,15.31733 -12.1229,22.70444 -3.64478,6.14697 -7.06441,12.42372 -10.39558,18.74483 -6.73386,12.46661 -15.63142,23.79829 -25.41755,34.09354 -15.72758,16.53482 -33.74673,30.62555 -51.42739,44.97138 -14.88412,12.11834 -29.98795,24.04447 -43.66665,37.54325 -9.95225,9.9287 -19.0111,20.9243 -25.63927,33.3731 -4.11973,7.7488 -7.03734,16.1409 -8.47348,24.8035 -2.22199,12.9461 -1.31888,26.3362 2.07792,38.9982 3.46176,13.2187 9.48983,25.6037 16.36045,37.3592 23.34286,41.1688 52.94748,79.0427 88.87602,109.978 23.42241,20.1473 49.70993,37.2467 78.47205,48.7176 23.4096,9.3223 48.52155,14.6649 73.76379,14.6039 15.23984,-0.034 30.49083,-1.8749 45.26701,-5.6219 8.66034,-2.2141 17.21171,-5.0375 25.16856,-9.1549 7.46087,-3.8027 14.55239,-8.2722 21.68252,-12.6499 24.63314,-15.3664 48.05209,-32.5675 72.37607,-48.4048 20.4742,-13.2877 41.72106,-25.9292 64.82004,-34.1842 5.1182,-1.8362 10.4776,-3.4648 15.6546,-4.767 2.5201,-0.621 5.1101,-1.2114 7.5717,-1.69 3.8345,-0.7623 7.9248,-1.3837 11.9096,-1.7875 1.4198,-0.1466 2.8083,-0.2697 4.1531,-0.3566 1.3235,-0.094 2.659,-0.1661 3.8936,-0.2089 3.1212,-0.1243 6.4425,-0.1048 9.4408,0.02 1.727,0.085 3.4092,0.1888 5.0649,0.3353 18.3545,1.5749 36.1895,7.7146 51.9911,17.1129 5.0318,2.971 10.0132,6.1342 14.3338,10.0914 2.0234,2.6571 3.5459,5.6482 5.431,8.4002 7.1558,11.3085 15.462,21.995 25.5183,30.8803 13.6115,12.1807 30.1172,21.3751 48.017,25.3481 21.131,4.7877 43.7416,2.5626 63.5973,-6.0785 22.1109,-9.4508 40.9433,-25.7569 54.7083,-45.3584 5.2337,-7.3869 9.6759,-15.2883 14.0376,-23.2089 2.7672,-4.9543 6.2574,-9.4444 9.4077,-14.1515 3.9606,-5.7066 7.5197,-11.6946 10.5034,-17.9706 6.1269,-12.7315 10.0706,-26.6765 10.2648,-40.8635 0.2166,-14.1943 -3.4083,-28.3087 -9.7477,-40.9659 -7.3385,-14.6864 -17.859,-27.5648 -29.5979,-38.9525 -18.9593,-18.3858 -41.2159,-33.0289 -64.4684,-45.3905 -12.5231,-6.7519 -25.6231,-12.3355 -38.4283,-18.51195 -7.5067,-4.06183 -14.1014,-9.58427 -20.3235,-15.37618 -9.0839,-8.61174 -16.6698,-18.95311 -21.3203,-30.62184 -6.3511,-15.60847 -7.0199,-33.40038 -2.0443,-49.48534 0.478,-1.57668 1.0881,-3.30873 1.6333,-4.7326 4.5826,-11.94623 12.0526,-22.73416 21.4472,-31.40234 0.3469,-0.31789 0.8424,-0.77458 1.2139,-1.0968 1.7218,-1.5366 3.6609,-3.1149 5.585,-4.5575 0.8751,-0.64668 1.9663,-1.43534 2.9509,-2.10235 1.4219,-0.97055 2.8676,-1.89101 4.3967,-2.80585 3.3936,-2.01917 6.935,-3.78807 10.584,-5.29688 0.4547,-0.17429 1.2347,-0.49693 1.8163,-0.72266 6.3225,-2.43323 12.9248,-4.13434 19.6329,-5.07812 0.5727,-0.0728 1.4776,-0.20099 2.1829,-0.27533 14.8597,-1.73704 30.0594,0.7177 43.8922,6.303 6.2526,2.47978 12.236,5.57682 18.0867,8.88204 6.6836,3.67262 14.081,5.86782 21.5826,7.095 29.3936,5.64256 59.3295,8.34732 89.2533,8.38815 33.8559,0.0475 67.6887,-3.26464 100.979,-9.37353 30.1535,-5.57753 59.893,-13.47591 88.7541,-23.85184 4.1269,-1.54365 8.3441,-2.90568 12.2315,-5.0122 9.6176,-5.0376 17.9295,-12.1744 25.7455,-19.62835 17.483,-16.9524 30.4492,-38.20812 39.0596,-60.90357 10.7884,-28.34139 15.5059,-58.67348 16.5522,-88.88417 1.1834,-35.11308 -2.523,-70.31226 -10.0174,-104.60897 -2.1138,-9.16474 -6.3086,-17.93094 -12.6493,-24.92812 -7.9664,-8.96272 -18.4876,-15.28255 -29.523,-19.74564 -17.9598,-7.24288 -37.9094,-9.04203 -56.9865,-6.03979 -24.0335,3.50035 -46.8774,13.19366 -67.1461,26.40793 -24.0803,15.69884 -44.9987,36.56864 -59.564,61.43552 -6.3508,10.87106 -11.1689,22.57535 -17.8648,33.25343 -10.853,17.36055 -24.3276,33.10936 -40.0152,46.28223 -18.3414,15.43153 -39.6783,27.64192 -62.8925,33.94588 -2.489,0.67333 -4.8365,1.247 -7.3922,1.79705 -7.6077,1.63473 -15.3592,2.62167 -23.1397,2.84019 -1.635,0.0396 -3.4864,0.0609 -5.2057,0.0299 -5.8618,-0.0857 -11.7749,-0.61567 -17.6181,-1.61005 -5.8314,-0.9945 -11.722,-2.49618 -17.4088,-4.3982 -2.6161,-0.87858 -5.2337,-1.85962 -7.8341,-2.94426 -3.5948,-1.49635 -7.3055,-3.27678 -10.7165,-5.12427 -7.4365,-4.00427 -14.3899,-8.86381 -20.8521,-14.2944 -8.6441,-7.07836 -17.3587,-14.07543 -25.8301,-21.36068 -9.3276,-8.33353 -17.6832,-17.7286 -25.0932,-27.79804 -0.9839,-1.34095 -2.0702,-2.87826 -3.0793,-4.30478 -4.372,-6.28461 -8.3734,-12.8232 -12.0437,-19.54093 -0.544,-1.03248 -1.231,-2.28107 -1.8135,-3.40558 -9.5328,-18.19639 -16.6121,-37.5489 -22.999,-57.03582 -5.797,-17.85212 -11.0331,-36.01358 -16.6407,-53.97673 -6.6821,-21.60784 -13.853,-43.16597 -23.7573,-63.54429 -6.6859,-13.65872 -14.5298,-26.84159 -24.2899,-38.54198 -6.2961,-7.27565 -14.1212,-13.1246 -22.6014,-17.62005 -11.0725,-6.13949 -23.3235,-10.52481 -36.0323,-11.32221 -2.2398,-0.17078 -4.4873,-0.22205 -6.7331,-0.21154 z" />
  </g>
</svg>
