<?xml version="1.0" encoding="UTF-8" standalone="no"?>
<!-- Created with Inkscape (http://www.inkscape.org/) -->

<svg
   version="1.1"
   id="svg1"
   width="961.60632"
   height="664.66528"
   viewBox="0 0 961.60632 664.66528"
   xmlns="http://www.w3.org/2000/svg"
   xmlns:svg="http://www.w3.org/2000/svg">
  <defs
     id="defs1" />
  <g
     id="g1"
     transform="translate(-296.83896,-492.93433)">
    <path
       style="fill:none;fill-opacity:1;stroke:#ffffff;stroke-width:2;stroke-dasharray:none;stroke-opacity:1;paint-order:stroke fill markers"
       d="m 763.16038,494.01885 c 2.68928,0.89887 16.0577,-4.74137 22.75068,15.48295 6.69299,20.22433 0.23337,173.44255 31.84772,183.85911 31.61435,10.41657 399.94612,46.14545 421.74532,63.98328 21.7993,17.83783 27.1437,254.88611 -3.3563,255.48001 -150.1388,2.9235 -444.5955,-165.60171 -478.2547,-132.21095 -33.6592,33.39076 1.68656,174.23155 -22.38574,209.06975 -24.0723,34.8383 -137.25584,84.6887 -160.93754,60.533 -23.68169,-24.1557 16.40248,-205.26573 -5.04143,-231.81531 -21.44392,-26.54959 -169.94918,58.15537 -199.30627,35.71168 -29.3571,-22.44368 -78.32361,-125.64941 -71.78324,-163.21831 6.54037,-37.56889 123.86165,-159.51465 153.65501,-158.8238 29.79336,0.69085 84.4746,38.65203 115.85351,50.50587 22.64887,8.55594 64.85132,-39.83041 104.17825,-92.05681 31.75161,-42.16633 50.61292,-98.60987 91.03473,-96.50047 z"
       id="path1" />
  </g>
</svg>
